<svg xmlns="http://www.w3.org/2000/svg" width="50" height="36" viewBox="-2 0 50 36" fill="none"><g opacity=".9"><mask id="a" maskUnits="userSpaceOnUse" x="0" y="-.455" width="50" height="37" fill="#000"><path fill="#fff" d="M0-.455h50v37H0z"/><path d="M37.813.545c-.323.005-.63.135-.86.363l-4.068 4.06a1.236 1.236 0 000 1.754l.197.196a3.113 3.113 0 01-3.473.72 4.246 4.246 0 00-4.659.902l-.477.477a3.992 3.992 0 00-2.08-1.235 14.604 14.604 0 00-5.232.012 1.238 1.238 0 00-.045-1.704l-4.07-4.062a1.245 1.245 0 00-1.756 0l-9.926 9.905a1.238 1.238 0 000 1.754l4.07 4.06a1.244 1.244 0 001.756 0l.176-.176a12.526 12.526 0 012.436 3.941 9.05 9.05 0 002.666 3.002 2.29 2.29 0 00.409 3.33 2.301 2.301 0 001.788.395 2.288 2.288 0 001.167 2.75 2.302 2.302 0 001.586.17 2.288 2.288 0 00.358 1.894 2.298 2.298 0 003.493.29l.217-.214a2.299 2.299 0 003.92 1.656l1.795-1.789c.069-.069.133-.142.192-.219a2.302 2.302 0 003.048-.371c.373-.427.574-.976.566-1.541l.31.307a2.301 2.301 0 003.687-.605 2.288 2.288 0 00-.035-2.095 2.3 2.3 0 001.83-.688 2.29 2.29 0 00.636-1.845l2.605-2.599a6.728 6.728 0 001.955-4.241c.074-.951.228-1.895.46-2.82l.357.351a1.244 1.244 0 001.756 0l4.069-4.06a1.238 1.238 0 000-1.752L38.71.912a1.244 1.244 0 00-.898-.362V.545zm.01.647a.595.595 0 01.427.175l9.924 9.903a.593.593 0 010 .839l-4.066 4.059a.595.595 0 01-.84 0L33.34 6.263a.59.59 0 010-.836l4.07-4.06a.595.595 0 01.414-.175zM12.16 2.31c.16-.002.315.06.429.174l4.068 4.062a.59.59 0 010 .836L6.73 17.287a.595.595 0 01-.84 0l-4.066-4.06a.593.593 0 010-.838l9.926-9.905a.592.592 0 01.41-.174zm21.379 5.065l8.39 8.367a17.633 17.633 0 00-.58 3.304 6.084 6.084 0 01-1.766 3.832l-2.347 2.34a2.296 2.296 0 00-.46-.657l-9.764-9.743a6.223 6.223 0 003.8-1.011.323.323 0 00-.355-.54 5.572 5.572 0 01-4.507.725 1.244 1.244 0 00-1.201.32l-4.476 4.467a1.651 1.651 0 01-2.735-.75c-.154-.56 0-1.16.405-1.578l7.467-7.452a3.595 3.595 0 013.947-.764 3.768 3.768 0 004.182-.86zm-13.085.838a13.93 13.93 0 011.81.203 3.34 3.34 0 011.75 1.06l-6.532 6.517a2.29 2.29 0 001.04 3.815 2.301 2.301 0 002.209-.573l4.476-4.466a.595.595 0 01.84 0l10.27 10.249a1.643 1.643 0 01-.748 2.733 1.65 1.65 0 01-1.582-.405l-2.643-2.638a.324.324 0 00-.46.457l3.225 3.22a1.644 1.644 0 01-.76 2.712 1.652 1.652 0 01-1.573-.387l-4.687-4.677a.324.324 0 00-.457.457l3.244 3.243a1.642 1.642 0 01-.6 2.693 1.653 1.653 0 01-1.557-.218 2.288 2.288 0 00-1.149-2.906 2.3 2.3 0 00-1.678-.119 2.297 2.297 0 00-3.274-2.503 2.29 2.29 0 00-.565-1.73 2.298 2.298 0 00-3.347-.105l-.566.565a2.29 2.29 0 00-2.284-2.326 2.3 2.3 0 00-1.636.67l-.291.289a8.412 8.412 0 01-2.534-2.806A13.175 13.175 0 007.83 17.11l8.484-8.466a13.944 13.944 0 014.142-.43h-.003zm-5.687 15.518a1.652 1.652 0 011.724 1.62c.007.445-.167.874-.483 1.189l-.612.608a1.65 1.65 0 01-2.713-.758 1.644 1.644 0 01.383-1.567l.608-.611a1.65 1.65 0 011.093-.48zm4.585 1.119a1.651 1.651 0 011.597 1.635c.002.425-.16.835-.454 1.144l-2.472 2.469a1.652 1.652 0 01-2.713-.759 1.644 1.644 0 01.382-1.567l2.472-2.469a1.65 1.65 0 011.188-.453zm3.32 2.262a1.652 1.652 0 011.593 1.643c0 .426-.164.835-.46 1.143l-1.645 1.64-1.347 1.345a1.653 1.653 0 01-2.76-.737 1.645 1.645 0 01.425-1.591l2.996-2.986a1.65 1.65 0 011.199-.457zm2.929 2.642a1.651 1.651 0 011.596 1.637c.002.426-.161.836-.456 1.144l-1.79 1.789a1.65 1.65 0 01-2.752-.742 1.643 1.643 0 01.42-1.586l1.792-1.789a1.65 1.65 0 011.19-.453z"/></mask><path d="M37.813.545c-.323.005-.63.135-.86.363l-4.068 4.06a1.236 1.236 0 000 1.754l.197.196a3.113 3.113 0 01-3.473.72 4.246 4.246 0 00-4.659.902l-.477.477a3.992 3.992 0 00-2.08-1.235 14.604 14.604 0 00-5.232.012 1.238 1.238 0 00-.045-1.704l-4.07-4.062a1.245 1.245 0 00-1.756 0l-9.926 9.905a1.238 1.238 0 000 1.754l4.07 4.06a1.244 1.244 0 001.756 0l.176-.176a12.526 12.526 0 012.436 3.941 9.05 9.05 0 002.666 3.002 2.29 2.29 0 00.409 3.33 2.301 2.301 0 001.788.395 2.288 2.288 0 001.167 2.75 2.302 2.302 0 001.586.17 2.288 2.288 0 00.358 1.894 2.298 2.298 0 003.493.29l.217-.214a2.299 2.299 0 003.92 1.656l1.795-1.789c.069-.069.133-.142.192-.219a2.302 2.302 0 003.048-.371c.373-.427.574-.976.566-1.541l.31.307a2.301 2.301 0 003.687-.605 2.288 2.288 0 00-.035-2.095 2.3 2.3 0 001.83-.688 2.29 2.29 0 00.636-1.845l2.605-2.599a6.728 6.728 0 001.955-4.241c.074-.951.228-1.895.46-2.82l.357.351a1.244 1.244 0 001.756 0l4.069-4.06a1.238 1.238 0 000-1.752L38.71.912a1.244 1.244 0 00-.898-.362V.545zm.01.647a.595.595 0 01.427.175l9.924 9.903a.593.593 0 010 .839l-4.066 4.059a.595.595 0 01-.84 0L33.34 6.263a.59.59 0 010-.836l4.07-4.06a.595.595 0 01.414-.175zM12.16 2.31c.16-.002.315.06.429.174l4.068 4.062a.59.59 0 010 .836L6.73 17.287a.595.595 0 01-.84 0l-4.066-4.06a.593.593 0 010-.838l9.926-9.905a.592.592 0 01.41-.174zm21.379 5.065l8.39 8.367a17.633 17.633 0 00-.58 3.304 6.084 6.084 0 01-1.766 3.832l-2.347 2.34a2.296 2.296 0 00-.46-.657l-9.764-9.743a6.223 6.223 0 003.8-1.011.323.323 0 00-.355-.54 5.572 5.572 0 01-4.507.725 1.244 1.244 0 00-1.201.32l-4.476 4.467a1.651 1.651 0 01-2.735-.75c-.154-.56 0-1.16.405-1.578l7.467-7.452a3.595 3.595 0 013.947-.764 3.768 3.768 0 004.182-.86zm-13.085.838a13.93 13.93 0 011.81.203 3.34 3.34 0 011.75 1.06l-6.532 6.517a2.29 2.29 0 001.04 3.815 2.301 2.301 0 002.209-.573l4.476-4.466a.595.595 0 01.84 0l10.27 10.249a1.643 1.643 0 01-.748 2.733 1.65 1.65 0 01-1.582-.405l-2.643-2.638a.324.324 0 00-.46.457l3.225 3.22a1.644 1.644 0 01-.76 2.712 1.652 1.652 0 01-1.573-.387l-4.687-4.677a.324.324 0 00-.457.457l3.244 3.243a1.642 1.642 0 01-.6 2.693 1.653 1.653 0 01-1.557-.218 2.288 2.288 0 00-1.149-2.906 2.3 2.3 0 00-1.678-.119 2.297 2.297 0 00-3.274-2.503 2.29 2.29 0 00-.565-1.73 2.298 2.298 0 00-3.347-.105l-.566.565a2.29 2.29 0 00-2.284-2.326 2.3 2.3 0 00-1.636.67l-.291.289a8.412 8.412 0 01-2.534-2.806A13.175 13.175 0 007.83 17.11l8.484-8.466a13.944 13.944 0 014.142-.43h-.003zm-5.687 15.518a1.652 1.652 0 011.724 1.62c.007.445-.167.874-.483 1.189l-.612.608a1.65 1.65 0 01-2.713-.758 1.644 1.644 0 01.383-1.567l.608-.611a1.65 1.65 0 011.093-.48zm4.585 1.119a1.651 1.651 0 011.597 1.635c.002.425-.16.835-.454 1.144l-2.472 2.469a1.652 1.652 0 01-2.713-.759 1.644 1.644 0 01.382-1.567l2.472-2.469a1.65 1.65 0 011.188-.453zm3.32 2.262a1.652 1.652 0 011.593 1.643c0 .426-.164.835-.46 1.143l-1.645 1.64-1.347 1.345a1.653 1.653 0 01-2.76-.737 1.645 1.645 0 01.425-1.591l2.996-2.986a1.65 1.65 0 011.199-.457zm2.929 2.642a1.651 1.651 0 011.596 1.637c.002.426-.161.836-.456 1.144l-1.79 1.789a1.65 1.65 0 01-2.752-.742 1.643 1.643 0 01.42-1.586l1.792-1.789a1.65 1.65 0 011.19-.453z" fill="#B01736"/><path d="M37.813.545c-.323.005-.63.135-.86.363l-4.068 4.06a1.236 1.236 0 000 1.754l.197.196a3.113 3.113 0 01-3.473.72 4.246 4.246 0 00-4.659.902l-.477.477a3.992 3.992 0 00-2.08-1.235 14.604 14.604 0 00-5.232.012 1.238 1.238 0 00-.045-1.704l-4.07-4.062a1.245 1.245 0 00-1.756 0l-9.926 9.905a1.238 1.238 0 000 1.754l4.07 4.06a1.244 1.244 0 001.756 0l.176-.176a12.526 12.526 0 012.436 3.941 9.05 9.05 0 002.666 3.002 2.29 2.29 0 00.409 3.33 2.301 2.301 0 001.788.395 2.288 2.288 0 001.167 2.75 2.302 2.302 0 001.586.17 2.288 2.288 0 00.358 1.894 2.298 2.298 0 003.493.29l.217-.214a2.299 2.299 0 003.92 1.656l1.795-1.789c.069-.069.133-.142.192-.219a2.302 2.302 0 003.048-.371c.373-.427.574-.976.566-1.541l.31.307a2.301 2.301 0 003.687-.605 2.288 2.288 0 00-.035-2.095 2.3 2.3 0 001.83-.688 2.29 2.29 0 00.636-1.845l2.605-2.599a6.728 6.728 0 001.955-4.241c.074-.951.228-1.895.46-2.82l.357.351a1.244 1.244 0 001.756 0l4.069-4.06a1.238 1.238 0 000-1.752L38.71.912a1.244 1.244 0 00-.898-.362V.545zm.01.647a.595.595 0 01.427.175l9.924 9.903a.593.593 0 010 .839l-4.066 4.059a.595.595 0 01-.84 0L33.34 6.263a.59.59 0 010-.836l4.07-4.06a.595.595 0 01.414-.175zM12.16 2.31c.16-.002.315.06.429.174l4.068 4.062a.59.59 0 010 .836L6.73 17.287a.595.595 0 01-.84 0l-4.066-4.06a.593.593 0 010-.838l9.926-9.905a.592.592 0 01.41-.174zm21.379 5.065l8.39 8.367a17.633 17.633 0 00-.58 3.304 6.084 6.084 0 01-1.766 3.832l-2.347 2.34a2.296 2.296 0 00-.46-.657l-9.764-9.743a6.223 6.223 0 003.8-1.011.323.323 0 00-.355-.54 5.572 5.572 0 01-4.507.725 1.244 1.244 0 00-1.201.32l-4.476 4.467a1.651 1.651 0 01-2.735-.75c-.154-.56 0-1.16.405-1.578l7.467-7.452a3.595 3.595 0 013.947-.764 3.768 3.768 0 004.182-.86zm-13.085.838a13.93 13.93 0 011.81.203 3.34 3.34 0 011.75 1.06l-6.532 6.517a2.29 2.29 0 001.04 3.815 2.301 2.301 0 002.209-.573l4.476-4.466a.595.595 0 01.84 0l10.27 10.249a1.643 1.643 0 01-.748 2.733 1.65 1.65 0 01-1.582-.405l-2.643-2.638a.324.324 0 00-.46.457l3.225 3.22a1.644 1.644 0 01-.76 2.712 1.652 1.652 0 01-1.573-.387l-4.687-4.677a.324.324 0 00-.457.457l3.244 3.243a1.642 1.642 0 01-.6 2.693 1.653 1.653 0 01-1.557-.218 2.288 2.288 0 00-1.149-2.906 2.3 2.3 0 00-1.678-.119 2.297 2.297 0 00-3.274-2.503 2.29 2.29 0 00-.565-1.73 2.298 2.298 0 00-3.347-.105l-.566.565a2.29 2.29 0 00-2.284-2.326 2.3 2.3 0 00-1.636.67l-.291.289a8.412 8.412 0 01-2.534-2.806A13.175 13.175 0 007.83 17.11l8.484-8.466a13.944 13.944 0 014.142-.43h-.003zm-5.687 15.518a1.652 1.652 0 011.724 1.62c.007.445-.167.874-.483 1.189l-.612.608a1.65 1.65 0 01-2.713-.758 1.644 1.644 0 01.383-1.567l.608-.611a1.65 1.65 0 011.093-.48zm4.585 1.119a1.651 1.651 0 011.597 1.635c.002.425-.16.835-.454 1.144l-2.472 2.469a1.652 1.652 0 01-2.713-.759 1.644 1.644 0 01.382-1.567l2.472-2.469a1.65 1.65 0 011.188-.453zm3.32 2.262a1.652 1.652 0 011.593 1.643c0 .426-.164.835-.46 1.143l-1.645 1.64-1.347 1.345a1.653 1.653 0 01-2.76-.737 1.645 1.645 0 01.425-1.591l2.996-2.986a1.65 1.65 0 011.199-.457zm2.929 2.642a1.651 1.651 0 011.596 1.637c.002.426-.161.836-.456 1.144l-1.79 1.789a1.65 1.65 0 01-2.752-.742 1.643 1.643 0 01.42-1.586l1.792-1.789a1.65 1.65 0 011.19-.453z" stroke="#B01736" mask="url(#a)"/></g></svg>